<svg aria-hidden="true" style="position: absolute; width: 0; height: 0; overflow: hidden;" version="1.1" xmlns="http://www.w3.org/2000/svg" xmlns:xlink="http://www.w3.org/1999/xlink">
<defs>
<symbol id="icon-pinterest" viewBox="0 0 24 32">
<title>pinterest</title>
<path fill="#f38181" style="fill: var(--color1, #f38181)" d="M10.173 20.771c-0.261 1.049-0.525 2.136-0.797 3.197-0.268 1.217-0.576 2.249-0.95 3.249l0.054-0.163c-0.652 1.69-1.513 3.148-2.574 4.436l0.022-0.027c-0.718 0.824-0.566 0.5-0.782 0.45-0.165-0.037-0.179-0.2-0.211-0.425-0.055-0.61-0.086-1.319-0.086-2.035 0-0.752 0.034-1.496 0.102-2.231l-0.007 0.094c0.115-1.598 0.376-3.080 0.774-4.506l-0.038 0.159c0.605-2.573 1.182-5.096 1.792-7.694 0.063-0.162 0.104-0.35 0.112-0.546l0-0.004c-0.257-0.619-0.446-1.337-0.532-2.086l-0.003-0.037c-0.026-0.223-0.041-0.48-0.041-0.742 0-0.602 0.078-1.185 0.225-1.741l-0.011 0.047c0.268-1.324 1.155-2.395 2.34-2.913l0.026-0.010c0.262-0.091 0.565-0.144 0.88-0.144 0.471 0 0.914 0.118 1.302 0.326l-0.015-0.007c0.556 0.337 0.953 0.887 1.081 1.534l0.002 0.015c0.052 0.286 0.082 0.614 0.082 0.95 0 0.501-0.066 0.987-0.19 1.45l0.009-0.039c-0.334 1.524-0.772 2.673-1.17 4.134-0.181 0.472-0.286 1.018-0.286 1.589 0 0.237 0.018 0.47 0.053 0.698l-0.003-0.025c0.148 0.664 0.528 1.221 1.050 1.593l0.008 0.005c0.503 0.364 1.133 0.582 1.813 0.582 0.076 0 0.152-0.003 0.227-0.008l-0.010 0.001c1.384-0.127 2.572-0.868 3.301-1.945l0.010-0.016c1.168-1.641 1.928-3.647 2.090-5.819l0.002-0.039c0.068-0.527 0.107-1.137 0.107-1.756 0-0.265-0.007-0.529-0.021-0.791l0.002 0.037c-0.059-1.479-0.579-2.826-1.419-3.913l0.012 0.016c-0.803-0.985-1.869-1.727-3.091-2.123l-0.047-0.013c-0.885-0.274-1.903-0.432-2.958-0.432-0.608 0-1.205 0.053-1.784 0.153l0.062-0.009c-2.693 0.411-4.926 2.073-6.117 4.363l-0.022 0.046c-0.659 1.208-1.046 2.645-1.046 4.173 0 0.030 0 0.060 0 0.091l-0-0.005c-0.002 0.052-0.003 0.113-0.003 0.174 0 1.093 0.317 2.113 0.863 2.972l-0.013-0.022c0.166 0.25 0.41 0.462 0.572 0.749 0.040 0.156 0.064 0.334 0.064 0.518 0 0.338-0.078 0.658-0.218 0.943l0.006-0.013c-0.137 0.537-0.152 1.262-0.772 1.274-0.301-0.034-0.573-0.141-0.802-0.303l0.005 0.004c-1.635-1.003-2.772-2.683-3.022-4.64l-0.003-0.032c-0.118-0.607-0.185-1.304-0.185-2.017s0.067-1.411 0.196-2.086l-0.011 0.069c0.684-3.297 2.697-6.027 5.442-7.652l0.054-0.029c1.403-0.837 3.052-1.428 4.813-1.666l0.067-0.007c0.59-0.089 1.283-0.147 1.987-0.162l0.018-0c0.171-0.009 0.371-0.014 0.573-0.014 1.748 0 3.408 0.373 4.907 1.043l-0.076-0.030c1.461 0.655 2.7 1.562 3.714 2.676l0.008 0.009c1.044 1.139 1.834 2.526 2.273 4.063l0.017 0.072c0.292 0.849 0.472 1.829 0.499 2.847l0 0.013c-0.047 1.076-0.185 2.092-0.407 3.076l0.022-0.116c-0.421 3.337-2.201 6.191-4.759 8.033l-0.035 0.024c-1.324 0.865-2.945 1.38-4.686 1.38-0.109 0-0.218-0.002-0.326-0.006l0.016 0c-0.917-0.057-1.763-0.318-2.506-0.739l0.029 0.015c-0.69-0.365-1.25-0.896-1.637-1.543l-0.010-0.019z"></path>
</symbol>
<symbol id="icon-instagram" viewBox="0 0 32 32">
<title>instagram</title>
<path fill="#f38181" style="fill: var(--color1, #f38181)" d="M27.963 31.988h-23.981c-2.207 0-3.997-1.789-3.997-3.997v0-23.981c0-2.207 1.789-3.997 3.997-3.997v0h23.981c2.207 0 3.997 1.789 3.997 3.997v0 23.981c0 2.207-1.789 3.997-3.997 3.997v0zM15.973 9.805c-0 0-0.001 0-0.001 0-2.478 0-4.615 1.456-5.603 3.559l-0.016 0.038c-0.008 0.024-0.017 0.045-0.028 0.064l0.001-0.001c-0.059 0.137-0.11 0.275-0.16 0.412-0.024 0.062-0.050 0.125-0.071 0.187-0.046 0.137-0.084 0.287-0.125 0.425-0.018 0.062-0.037 0.137-0.052 0.2-0.032 0.15-0.055 0.3-0.076 0.462-0.009 0.062-0.021 0.125-0.029 0.187-0.023 0.198-0.036 0.428-0.036 0.661v0.001c0 3.422 2.774 6.195 6.195 6.195s6.195-2.774 6.195-6.195v0c-0.001-0.234-0.014-0.464-0.039-0.691l0.003 0.029c-0.008-0.062-0.020-0.125-0.029-0.187-0.021-0.162-0.044-0.312-0.076-0.462-0.015-0.062-0.035-0.137-0.052-0.2-0.035-0.137-0.072-0.287-0.125-0.425-0.021-0.062-0.047-0.125-0.071-0.187-0.050-0.137-0.101-0.275-0.16-0.412-0.011-0.018-0.020-0.039-0.027-0.060l-0.001-0.002c-1.004-2.14-3.139-3.596-5.615-3.597h-0zM28.363 5.208c0-0.001 0-0.002 0-0.003 0-0.882-0.715-1.596-1.596-1.596-0.001 0-0.002 0-0.003 0h-3.197c-0.001 0-0.002 0-0.003 0-0.882 0-1.596 0.715-1.596 1.596 0 0.001 0 0.002 0 0.003v-0 3.198c0 0.001 0 0.002 0 0.002 0 0.882 0.715 1.596 1.596 1.596 0.001 0 0.002 0 0.003 0h3.197c0.001 0 0.002 0 0.003 0 0.882 0 1.596-0.715 1.596-1.596 0-0.001 0-0.002 0-0.003v0-3.197zM28.363 13.402h-2.948c0.222 0.778 0.35 1.671 0.35 2.594 0 5.408-4.384 9.792-9.792 9.792s-9.792-4.384-9.792-9.792c0-0.923 0.128-1.816 0.366-2.663l-0.017 0.069h-2.948v13.39c0 0.001 0 0.002 0 0.003 0 0.882 0.715 1.596 1.596 1.596 0.001 0 0.002 0 0.003 0h21.583c0.001 0 0.002 0 0.003 0 0.882 0 1.596-0.715 1.596-1.596 0-0.001 0-0.002 0-0.003v0-13.39z"></path>
</symbol>
<symbol id="icon-facebook" viewBox="0 0 15 32">
<title>facebook</title>
<path fill="#fff" style="fill: var(--color2, #fff)" d="M14.982 0.013v5.146s-3.793-0.375-4.746 1.074c-0.52 0.799-0.211 3.123-0.257 4.796h5.032c-0.425 1.948-0.729 3.272-1.043 4.971h-4.017v15.988h-6.972c0-4.934 0-10.679 0-15.925h-2.966v-5.034h2.934c0.15-3.685 0.206-7.332 2.035-9.18 2.056-2.086 4.019-1.836 10.001-1.836z"></path>
</symbol>
<symbol id="icon-COMPUTER-_-OK" viewBox="0 0 35 32">
<title>COMPUTER-_-OK</title>
<path fill="#95e1d3" style="fill: var(--color3, #95e1d3)" d="M33.714 26.286h-10.857v2.857l2.286 2.286v0.571h-14.857v-0.571l2.286-2.286v-2.857h-10.857c-0.947 0-1.714-0.767-1.714-1.714v0-22.857c0-0.947 0.767-1.714 1.714-1.714v0h32c0.947 0 1.714 0.767 1.714 1.714v0 22.857c0 0.947-0.767 1.714-1.714 1.714v0zM33.143 2.286h-30.857v19.429h30.857v-19.429zM14.286 10.286c0.473 0.001 0.901 0.193 1.211 0.503l1.074 1.074 3.36-3.36c0.314-0.336 0.76-0.546 1.254-0.546 0.947 0 1.714 0.767 1.714 1.714 0 0.495-0.209 0.94-0.545 1.253l-0.001 0.001-4.571 4.571c-0.31 0.31-0.738 0.501-1.211 0.501s-0.901-0.192-1.211-0.501l-2.286-2.286c-0.31-0.31-0.501-0.738-0.501-1.211 0-0.946 0.767-1.713 1.713-1.714h0z"></path>
</symbol>
<symbol id="icon-LINE-GRAPH" viewBox="0 0 32 32">
<title>LINE-GRAPH</title>
<path fill="#95e1d3" style="fill: var(--color3, #95e1d3)" d="M30.5 32h-29c-0.828 0-1.5-0.672-1.5-1.5v0-29c0-0.828 0.672-1.5 1.5-1.5v0h29c0.828 0 1.5 0.672 1.5 1.5v0 29c0 0.828-0.672 1.5-1.5 1.5v0zM29 3h-26v26h26v-26zM5.215 16.24v0l4-2.5c0.225-0.138 0.497-0.22 0.789-0.22 0.311 0 0.601 0.093 0.842 0.253l-0.006-0.004h0.006l6.631 4.42 7.638-5.4c0.244-0.179 0.55-0.286 0.881-0.286 0.829 0 1.501 0.672 1.501 1.501 0 0.498-0.242 0.939-0.615 1.212l-0.004 0.003-8.5 6c-0.242 0.18-0.547 0.289-0.878 0.29h-0c-0.323-0.003-0.622-0.107-0.865-0.283l0.004 0.003-6.657-4.43-3.135 1.95c-0.236 0.169-0.529 0.27-0.847 0.27h-0c-0.001 0-0.002 0-0.003 0-0.828 0-1.5-0.672-1.5-1.5 0-0.539 0.284-1.012 0.712-1.276l0.006-0.004z"></path>
</symbol>
<symbol id="icon-IMAGE" viewBox="0 0 32 32">
<title>IMAGE</title>
<path fill="#95e1d3" style="fill: var(--color3, #95e1d3)" d="M30.5 32h-29c-0.828 0-1.5-0.672-1.5-1.5v0-29c0-0.828 0.672-1.5 1.5-1.5v0h29c0.828 0 1.5 0.672 1.5 1.5v0 29c0 0.828-0.672 1.5-1.5 1.5v0zM29 3h-26v26h26v-26zM6.5 4.5h5.5c0.828 0 1.5 0.672 1.5 1.5s-0.672 1.5-1.5 1.5v0h-4.5v4.5c0 0.828-0.672 1.5-1.5 1.5s-1.5-0.672-1.5-1.5v0 0-7.5h2zM4.5 20v0c0-0.828 0.672-1.5 1.5-1.5s1.5 0.672 1.5 1.5v0 0 4.5h4.5c0.828 0 1.5 0.672 1.5 1.5s-0.672 1.5-1.5 1.5v0h-7.5v-7.5zM20 4.5h7.5v7.5c0 0.828-0.672 1.5-1.5 1.5s-1.5-0.672-1.5-1.5v0 0-4.5h-4.5c-0.828 0-1.5-0.672-1.5-1.5s0.672-1.5 1.5-1.5v0zM20 24.5h4.5v-4.5c0-0.828 0.672-1.5 1.5-1.5s1.5 0.672 1.5 1.5v0 0 7.5h-7.5c-0.828 0-1.5-0.672-1.5-1.5s0.672-1.5 1.5-1.5v0z"></path>
</symbol>
<symbol id="icon-BOOK-2" viewBox="0 0 32 32">
<title>BOOK-2</title>
<path fill="#95e1d3" style="fill: var(--color3, #95e1d3)" d="M31.065 25.89l-14.471 5.99c-0.175 0.076-0.38 0.12-0.594 0.12s-0.419-0.044-0.604-0.124l0.010 0.004-14.471-5.99c-0.553-0.229-0.935-0.765-0.935-1.39 0-0 0-0 0-0v0-23c0-0.828 0.672-1.5 1.5-1.5v0c0.206 0 0.403 0.040 0.583 0.114l-0.010-0.004c0.001 0.006 0.006 0.010 0.012 0.010 0 0 0.001-0 0.001-0h-0l13.914 5.76 13.911-5.76c0 0 0.001 0 0.001 0 0.006 0 0.011-0.004 0.012-0.010v-0c0.17-0.070 0.367-0.11 0.573-0.11h0c0.828 0 1.5 0.672 1.5 1.5v0 23c0 0 0 0.001 0 0.002 0 0.624-0.381 1.158-0.922 1.385l-0.010 0.004zM14.5 8.5l-11.5-4.76v19.76l11.5 4.76v-19.76zM29 3.74l-11.5 4.76v19.76l11.5-4.76v-19.76zM19.879 10.63l5.5-2.5c0.183-0.081 0.396-0.129 0.62-0.13h0c0.003-0 0.007-0 0.010-0 0.828 0 1.5 0.672 1.5 1.5 0 0.607-0.361 1.13-0.88 1.366l-0.009 0.004-5.5 2.5c-0.183 0.081-0.396 0.128-0.62 0.13h-0.001c-0.003 0-0.007 0-0.010 0-0.828 0-1.5-0.672-1.5-1.5 0-0.607 0.361-1.13 0.88-1.366l0.009-0.004zM19.879 16.13v0l5.5-2.5c0.183-0.081 0.396-0.129 0.62-0.13h0c0.003-0 0.007-0 0.010-0 0.828 0 1.5 0.672 1.5 1.5 0 0.607-0.361 1.13-0.88 1.366l-0.009 0.004-5.5 2.5v-0.010c-0.182 0.088-0.395 0.14-0.62 0.14-0 0-0 0-0.001 0h0c-0.003 0-0.007 0-0.010 0-0.828 0-1.5-0.672-1.5-1.5 0-0.607 0.361-1.13 0.88-1.366l0.009-0.004zM19.879 21.63v0l5.5-2.5c0.183-0.081 0.396-0.129 0.62-0.13h0c0.003-0 0.007-0 0.010-0 0.828 0 1.5 0.672 1.5 1.5 0 0.607-0.361 1.13-0.88 1.366l-0.009 0.004-5.5 2.5c-0.183 0.081-0.396 0.128-0.62 0.13h-0.001c-0.003 0-0.007 0-0.010 0-0.828 0-1.5-0.672-1.5-1.5 0-0.607 0.361-1.13 0.88-1.366l0.009-0.004zM6 8c0.225 0.002 0.438 0.049 0.631 0.134l-0.010-0.004 5.5 2.5c0.528 0.24 0.889 0.763 0.889 1.37 0 0.828-0.672 1.5-1.5 1.5-0.004 0-0.007 0-0.011-0h0.001c-0.225-0.001-0.438-0.049-0.631-0.134l0.010 0.004-5.5-2.5c-0.528-0.24-0.889-0.763-0.889-1.37 0-0.828 0.672-1.5 1.5-1.5 0.004 0 0.007 0 0.011 0h-0.001zM6 13.5c0.225 0.002 0.438 0.049 0.631 0.134l-0.010-0.004 5.5 2.5c0.528 0.24 0.889 0.763 0.889 1.37 0 0.828-0.672 1.5-1.5 1.5-0.004 0-0.007 0-0.011-0h0.001c-0.001 0-0.001 0-0.002 0-0.225 0-0.438-0.052-0.628-0.144l0.009 0.004v0.010l-5.5-2.5c-0.528-0.24-0.889-0.763-0.889-1.37 0-0.828 0.672-1.5 1.5-1.5 0.004 0 0.007 0 0.011 0h-0.001zM6 19c0.225 0.002 0.438 0.049 0.631 0.134l-0.010-0.004 5.5 2.5c0.528 0.24 0.889 0.763 0.889 1.37 0 0.828-0.672 1.5-1.5 1.5-0.004 0-0.007 0-0.011-0h0.001c-0.225-0.001-0.438-0.049-0.631-0.134l0.010 0.004-5.5-2.5c-0.528-0.24-0.889-0.763-0.889-1.37 0-0.828 0.672-1.5 1.5-1.5 0.004 0 0.007 0 0.011 0h-0.001z"></path>
</symbol>
<symbol id="icon-HOME" viewBox="0 0 34 32">
<title>HOME</title>
<path fill="#95e1d3" style="fill: var(--color3, #95e1d3)" d="M33.574 16.787c0 0.002 0 0.004 0 0.007 0 0.865-0.701 1.566-1.566 1.566-0.418 0-0.797-0.164-1.078-0.43l0.001 0.001v0.011l-14.14-14.143-14.107 14.111c-0.286 0.277-0.675 0.449-1.104 0.451h-0c-0.869 0-1.574-0.705-1.574-1.574v0c0-0.002-0-0.005-0-0.007 0-0.443 0.185-0.842 0.483-1.125l0.001-0.001 15.169-15.171c0.287-0.297 0.689-0.481 1.134-0.483h0.097c0.024 0 0.047 0.011 0.071 0.011v0c0.39 0.042 0.731 0.224 0.978 0.492l0.001 0.001 6.19 6.19v-1.448c0-0.869 0.705-1.574 1.574-1.574s1.574 0.705 1.574 1.574v0 4.595l5.875 5.875c0.262 0.278 0.423 0.654 0.423 1.067 0 0.001 0 0.002 0 0.003v-0zM30.426 19.41v11.016c0 0.869-0.705 1.574-1.574 1.574v0h-3.148v-12.59h-6.295v12.59h-14.689c-0.869 0-1.574-0.705-1.574-1.574v0-11.016l13.639-13.639zM14.164 19.41h-6.295v6.295h6.295v-6.295z"></path>
</symbol>
<symbol id="icon-ALARM" viewBox="0 0 34 32">
<title>ALARM</title>
<path fill="#95e1d3" style="fill: var(--color3, #95e1d3)" d="M32.252 9.967c-1.704-3.897-4.751-6.942-8.542-8.604l-0.106-0.041c1.038-0.825 2.368-1.324 3.814-1.324 3.4 0 6.157 2.756 6.157 6.157 0 1.446-0.498 2.775-1.332 3.825l0.010-0.013zM32 16.787c0 0.001 0 0.001 0 0.002 0 4.043-1.583 7.716-4.164 10.433l0.006-0.007 2.129 2.13c0.281 0.281 0.456 0.67 0.456 1.1 0 0.859-0.696 1.555-1.555 1.555-0 0-0.001 0-0.001 0h0c-0.429-0.002-0.817-0.174-1.101-0.451l-2.285-2.287c-2.425 1.713-5.441 2.738-8.698 2.738-3.25 0-6.261-1.021-8.731-2.76l0.048 0.032-2.269 2.266c-0.287 0.297-0.688 0.481-1.133 0.481-0.869 0-1.574-0.705-1.574-1.574 0-0.444 0.184-0.845 0.479-1.131l0-0 2.111-2.109c-2.561-2.715-4.135-6.386-4.135-10.424 0-8.399 6.809-15.208 15.208-15.208s15.208 6.809 15.208 15.208c0 0.002 0 0.004 0 0.006v-0zM16.787 4.721c-6.664 0-12.066 5.402-12.066 12.066s5.402 12.066 12.066 12.066c6.664 0 12.066-5.402 12.066-12.066v0c0-6.664-5.402-12.066-12.066-12.066v0zM23.082 18.361h-6.295c-0.869 0-1.574-0.705-1.574-1.574v0-8.393c0-0.869 0.705-1.574 1.574-1.574s1.574 0.705 1.574 1.574v0 6.82h4.721c0.869 0 1.574 0.705 1.574 1.574s-0.705 1.574-1.574 1.574v0zM1.35 10.188c-0.84-1.060-1.348-2.417-1.348-3.892 0-3.476 2.817-6.294 6.292-6.295h0c0.004 0 0.008 0 0.012 0 1.471 0 2.823 0.51 3.888 1.363l-0.012-0.010c-3.984 1.736-7.098 4.85-8.791 8.726l-0.042 0.108z"></path>
</symbol>
<symbol id="icon-111" viewBox="0 0 32 32">
<title>111</title>
<path fill="#fff" style="fill: var(--color2, #fff)" d="M31.101 26.862c0.541 0.543 0.876 1.292 0.876 2.119 0 1.657-1.343 3-3 3-0.83 0-1.581-0.337-2.124-0.881l-0-0-8.769-8.78c-1.753 1.056-3.87 1.68-6.132 1.68-6.645 0-12.032-5.387-12.032-12.032s5.387-12.032 12.032-12.032c6.645 0 12.032 5.387 12.032 12.032 0 2.255-0.62 4.365-1.7 6.169l0.030-0.055 8.788 8.78zM12.001 3.016c-4.963 0-8.987 4.024-8.987 8.987s4.024 8.987 8.987 8.987c4.963 0 8.987-4.024 8.987-8.987v0c-0.003-4.962-4.025-8.984-8.987-8.987h-0z"></path>
</symbol>
<symbol id="icon-SHOPPING-CART" viewBox="0 0 40 32">
<title>SHOPPING-CART</title>
<path fill="#fff" style="fill: var(--color2, #fff)" d="M40.003 7.070v0l-5.656 12.544c-0.282 0.626-0.884 1.063-1.592 1.104l-0.005 0-16.238 1.083 0.935 2.684h17.698c2.078 0 3.763 1.685 3.763 3.763s-1.685 3.763-3.763 3.763c-2.078 0-3.762-1.683-3.763-3.761v-0h-17.561c-0.001 2.077-1.686 3.761-3.763 3.761s-3.763-1.685-3.763-3.763 1.685-3.763 3.763-3.763h3.398l-7.253-20.697h-4.31c-1.039 0-1.882-0.842-1.882-1.882s0.842-1.882 1.882-1.882h5.656c0.816 0.006 1.51 0.525 1.775 1.25l0.004 0.013 1.095 3.131h27.847c0.003 0 0.006-0 0.009-0 1.040 0 1.883 0.842 1.884 1.881v0c-0.006 0.278-0.064 0.542-0.165 0.783l0.005-0.014zM11.745 8.181l3.467 9.937 16.17-1.079 3.991-8.858h-23.628z"></path>
</symbol>
<symbol id="icon-trophy" viewBox="0 0 32 32">
<title>trophy</title>
<path d="M26 6v-4h-20v4h-6v4c0 3.314 2.686 6 6 6 0.627 0 1.232-0.096 1.801-0.275 1.443 2.063 3.644 3.556 6.199 4.075v6.2h-2c-2.209 0-4 1.791-4 4h16c0-2.209-1.791-4-4-4h-2v-6.2c2.555-0.519 4.756-2.012 6.199-4.075 0.568 0.179 1.173 0.275 1.801 0.275 3.314 0 6-2.686 6-6v-4h-6zM6 13.625c-1.999 0-3.625-1.626-3.625-3.625v-2h3.625v2c0 1.256 0.232 2.457 0.655 3.565-0.213 0.039-0.431 0.060-0.655 0.060zM29.625 10c0 1.999-1.626 3.625-3.625 3.625-0.224 0-0.442-0.021-0.655-0.060 0.423-1.107 0.655-2.309 0.655-3.565v-2h3.625v2z"></path>
</symbol>
<symbol id="icon-glass2" viewBox="0 0 32 32">
<title>glass2</title>
<path d="M27.786 5.618c0.236-0.301 0.28-0.711 0.113-1.055s-0.517-0.563-0.899-0.563h-22c-0.383 0-0.732 0.219-0.899 0.563s-0.123 0.754 0.113 1.055l9.786 12.455v11.927h-3c-0.552 0-1 0.448-1 1s0.448 1 1 1h10c0.552 0 1-0.448 1-1s-0.448-1-1-1h-3v-11.927l9.786-12.455zM24.943 6l-3.143 4h-11.599l-3.143-4h17.885z"></path>
</symbol>
<symbol id="icon-mug" viewBox="0 0 32 32">
<title>mug</title>
<path d="M30 10h-6v-3c0-2.761-5.373-5-12-5s-12 2.239-12 5v20c0 2.761 5.373 5 12 5s12-2.239 12-5v-3h6c1.105 0 2-0.895 2-2v-10c0-1.105-0.895-2-2-2zM5.502 8.075c-1.156-0.381-1.857-0.789-2.232-1.075 0.375-0.286 1.075-0.694 2.232-1.075 1.811-0.597 4.118-0.925 6.498-0.925s4.688 0.329 6.498 0.925c1.156 0.381 1.857 0.789 2.232 1.075-0.375 0.286-1.076 0.694-2.232 1.075-1.811 0.597-4.118 0.925-6.498 0.925s-4.688-0.329-6.498-0.925zM28 20h-4v-6h4v6z"></path>
</symbol>
<symbol id="icon-spoon-knife" viewBox="0 0 32 32">
<title>spoon-knife</title>
<path d="M7 0c-3.314 0-6 3.134-6 7 0 3.31 1.969 6.083 4.616 6.812l-0.993 16.191c-0.067 1.098 0.778 1.996 1.878 1.996h1c1.1 0 1.945-0.898 1.878-1.996l-0.993-16.191c2.646-0.729 4.616-3.502 4.616-6.812 0-3.866-2.686-7-6-7zM27.167 0l-1.667 10h-1.25l-0.833-10h-0.833l-0.833 10h-1.25l-1.667-10h-0.833v13c0 0.552 0.448 1 1 1h2.604l-0.982 16.004c-0.067 1.098 0.778 1.996 1.878 1.996h1c1.1 0 1.945-0.898 1.878-1.996l-0.982-16.004h2.604c0.552 0 1-0.448 1-1v-13h-0.833z"></path>
</symbol>
</defs>
</svg>
