<svg aria-hidden="true" style="position: absolute; width: 0; height: 0; overflow: hidden;" version="1.1" xmlns="http://www.w3.org/2000/svg" xmlns:xlink="http://www.w3.org/1999/xlink">
<defs>
<symbol id="icon-COMPUTER-_-OK" viewBox="0 0 35 32">
<title>COMPUTER-_-OK</title>
<path fill="#95e1d3" style="fill: var(--color3, #95e1d3)" d="M33.714 26.286h-10.857v2.857l2.286 2.286v0.571h-14.857v-0.571l2.286-2.286v-2.857h-10.857c-0.947 0-1.714-0.767-1.714-1.714v0-22.857c0-0.947 0.767-1.714 1.714-1.714v0h32c0.947 0 1.714 0.767 1.714 1.714v0 22.857c0 0.947-0.767 1.714-1.714 1.714v0zM33.143 2.286h-30.857v19.429h30.857v-19.429zM14.286 10.286c0.473 0.001 0.901 0.193 1.211 0.503l1.074 1.074 3.36-3.36c0.314-0.336 0.76-0.546 1.254-0.546 0.947 0 1.714 0.767 1.714 1.714 0 0.495-0.209 0.94-0.545 1.253l-0.001 0.001-4.571 4.571c-0.31 0.31-0.738 0.501-1.211 0.501s-0.901-0.192-1.211-0.501l-2.286-2.286c-0.31-0.31-0.501-0.738-0.501-1.211 0-0.946 0.767-1.713 1.713-1.714h0z"></path>
</symbol>
<symbol id="icon-LINE-GRAPH" viewBox="0 0 32 32">
<title>LINE-GRAPH</title>
<path fill="#95e1d3" style="fill: var(--color3, #95e1d3)" d="M30.5 32h-29c-0.828 0-1.5-0.672-1.5-1.5v0-29c0-0.828 0.672-1.5 1.5-1.5v0h29c0.828 0 1.5 0.672 1.5 1.5v0 29c0 0.828-0.672 1.5-1.5 1.5v0zM29 3h-26v26h26v-26zM5.215 16.24v0l4-2.5c0.225-0.138 0.497-0.22 0.789-0.22 0.311 0 0.601 0.093 0.842 0.253l-0.006-0.004h0.006l6.631 4.42 7.638-5.4c0.244-0.179 0.55-0.286 0.881-0.286 0.829 0 1.501 0.672 1.501 1.501 0 0.498-0.242 0.939-0.615 1.212l-0.004 0.003-8.5 6c-0.242 0.18-0.547 0.289-0.878 0.29h-0c-0.323-0.003-0.622-0.107-0.865-0.283l0.004 0.003-6.657-4.43-3.135 1.95c-0.236 0.169-0.529 0.27-0.847 0.27h-0c-0.001 0-0.002 0-0.003 0-0.828 0-1.5-0.672-1.5-1.5 0-0.539 0.284-1.012 0.712-1.276l0.006-0.004z"></path>
</symbol>
<symbol id="icon-IMAGE" viewBox="0 0 32 32">
<title>IMAGE</title>
<path fill="#95e1d3" style="fill: var(--color3, #95e1d3)" d="M30.5 32h-29c-0.828 0-1.5-0.672-1.5-1.5v0-29c0-0.828 0.672-1.5 1.5-1.5v0h29c0.828 0 1.5 0.672 1.5 1.5v0 29c0 0.828-0.672 1.5-1.5 1.5v0zM29 3h-26v26h26v-26zM6.5 4.5h5.5c0.828 0 1.5 0.672 1.5 1.5s-0.672 1.5-1.5 1.5v0h-4.5v4.5c0 0.828-0.672 1.5-1.5 1.5s-1.5-0.672-1.5-1.5v0 0-7.5h2zM4.5 20v0c0-0.828 0.672-1.5 1.5-1.5s1.5 0.672 1.5 1.5v0 0 4.5h4.5c0.828 0 1.5 0.672 1.5 1.5s-0.672 1.5-1.5 1.5v0h-7.5v-7.5zM20 4.5h7.5v7.5c0 0.828-0.672 1.5-1.5 1.5s-1.5-0.672-1.5-1.5v0 0-4.5h-4.5c-0.828 0-1.5-0.672-1.5-1.5s0.672-1.5 1.5-1.5v0zM20 24.5h4.5v-4.5c0-0.828 0.672-1.5 1.5-1.5s1.5 0.672 1.5 1.5v0 0 7.5h-7.5c-0.828 0-1.5-0.672-1.5-1.5s0.672-1.5 1.5-1.5v0z"></path>
</symbol>
<symbol id="icon-BOOK-2" viewBox="0 0 32 32">
<title>BOOK-2</title>
<path fill="#95e1d3" style="fill: var(--color3, #95e1d3)" d="M31.065 25.89l-14.471 5.99c-0.175 0.076-0.38 0.12-0.594 0.12s-0.419-0.044-0.604-0.124l0.010 0.004-14.471-5.99c-0.553-0.229-0.935-0.765-0.935-1.39 0-0 0-0 0-0v0-23c0-0.828 0.672-1.5 1.5-1.5v0c0.206 0 0.403 0.040 0.583 0.114l-0.010-0.004c0.001 0.006 0.006 0.010 0.012 0.010 0 0 0.001-0 0.001-0h-0l13.914 5.76 13.911-5.76c0 0 0.001 0 0.001 0 0.006 0 0.011-0.004 0.012-0.010v-0c0.17-0.070 0.367-0.11 0.573-0.11h0c0.828 0 1.5 0.672 1.5 1.5v0 23c0 0 0 0.001 0 0.002 0 0.624-0.381 1.158-0.922 1.385l-0.010 0.004zM14.5 8.5l-11.5-4.76v19.76l11.5 4.76v-19.76zM29 3.74l-11.5 4.76v19.76l11.5-4.76v-19.76zM19.879 10.63l5.5-2.5c0.183-0.081 0.396-0.129 0.62-0.13h0c0.003-0 0.007-0 0.010-0 0.828 0 1.5 0.672 1.5 1.5 0 0.607-0.361 1.13-0.88 1.366l-0.009 0.004-5.5 2.5c-0.183 0.081-0.396 0.128-0.62 0.13h-0.001c-0.003 0-0.007 0-0.010 0-0.828 0-1.5-0.672-1.5-1.5 0-0.607 0.361-1.13 0.88-1.366l0.009-0.004zM19.879 16.13v0l5.5-2.5c0.183-0.081 0.396-0.129 0.62-0.13h0c0.003-0 0.007-0 0.010-0 0.828 0 1.5 0.672 1.5 1.5 0 0.607-0.361 1.13-0.88 1.366l-0.009 0.004-5.5 2.5v-0.010c-0.182 0.088-0.395 0.14-0.62 0.14-0 0-0 0-0.001 0h0c-0.003 0-0.007 0-0.010 0-0.828 0-1.5-0.672-1.5-1.5 0-0.607 0.361-1.13 0.88-1.366l0.009-0.004zM19.879 21.63v0l5.5-2.5c0.183-0.081 0.396-0.129 0.62-0.13h0c0.003-0 0.007-0 0.010-0 0.828 0 1.5 0.672 1.5 1.5 0 0.607-0.361 1.13-0.88 1.366l-0.009 0.004-5.5 2.5c-0.183 0.081-0.396 0.128-0.62 0.13h-0.001c-0.003 0-0.007 0-0.010 0-0.828 0-1.5-0.672-1.5-1.5 0-0.607 0.361-1.13 0.88-1.366l0.009-0.004zM6 8c0.225 0.002 0.438 0.049 0.631 0.134l-0.010-0.004 5.5 2.5c0.528 0.24 0.889 0.763 0.889 1.37 0 0.828-0.672 1.5-1.5 1.5-0.004 0-0.007 0-0.011-0h0.001c-0.225-0.001-0.438-0.049-0.631-0.134l0.010 0.004-5.5-2.5c-0.528-0.24-0.889-0.763-0.889-1.37 0-0.828 0.672-1.5 1.5-1.5 0.004 0 0.007 0 0.011 0h-0.001zM6 13.5c0.225 0.002 0.438 0.049 0.631 0.134l-0.010-0.004 5.5 2.5c0.528 0.24 0.889 0.763 0.889 1.37 0 0.828-0.672 1.5-1.5 1.5-0.004 0-0.007 0-0.011-0h0.001c-0.001 0-0.001 0-0.002 0-0.225 0-0.438-0.052-0.628-0.144l0.009 0.004v0.010l-5.5-2.5c-0.528-0.24-0.889-0.763-0.889-1.37 0-0.828 0.672-1.5 1.5-1.5 0.004 0 0.007 0 0.011 0h-0.001zM6 19c0.225 0.002 0.438 0.049 0.631 0.134l-0.010-0.004 5.5 2.5c0.528 0.24 0.889 0.763 0.889 1.37 0 0.828-0.672 1.5-1.5 1.5-0.004 0-0.007 0-0.011-0h0.001c-0.225-0.001-0.438-0.049-0.631-0.134l0.010 0.004-5.5-2.5c-0.528-0.24-0.889-0.763-0.889-1.37 0-0.828 0.672-1.5 1.5-1.5 0.004 0 0.007 0 0.011 0h-0.001z"></path>
</symbol>
<symbol id="icon-HOME" viewBox="0 0 34 32">
<title>HOME</title>
<path fill="#95e1d3" style="fill: var(--color3, #95e1d3)" d="M33.574 16.787c0 0.002 0 0.004 0 0.007 0 0.865-0.701 1.566-1.566 1.566-0.418 0-0.797-0.164-1.078-0.43l0.001 0.001v0.011l-14.14-14.143-14.107 14.111c-0.286 0.277-0.675 0.449-1.104 0.451h-0c-0.869 0-1.574-0.705-1.574-1.574v0c0-0.002-0-0.005-0-0.007 0-0.443 0.185-0.842 0.483-1.125l0.001-0.001 15.169-15.171c0.287-0.297 0.689-0.481 1.134-0.483h0.097c0.024 0 0.047 0.011 0.071 0.011v0c0.39 0.042 0.731 0.224 0.978 0.492l0.001 0.001 6.19 6.19v-1.448c0-0.869 0.705-1.574 1.574-1.574s1.574 0.705 1.574 1.574v0 4.595l5.875 5.875c0.262 0.278 0.423 0.654 0.423 1.067 0 0.001 0 0.002 0 0.003v-0zM30.426 19.41v11.016c0 0.869-0.705 1.574-1.574 1.574v0h-3.148v-12.59h-6.295v12.59h-14.689c-0.869 0-1.574-0.705-1.574-1.574v0-11.016l13.639-13.639zM14.164 19.41h-6.295v6.295h6.295v-6.295z"></path>
</symbol>
<symbol id="icon-ALARM" viewBox="0 0 34 32">
<title>ALARM</title>
<path fill="#95e1d3" style="fill: var(--color3, #95e1d3)" d="M32.252 9.967c-1.704-3.897-4.751-6.942-8.542-8.604l-0.106-0.041c1.038-0.825 2.368-1.324 3.814-1.324 3.4 0 6.157 2.756 6.157 6.157 0 1.446-0.498 2.775-1.332 3.825l0.010-0.013zM32 16.787c0 0.001 0 0.001 0 0.002 0 4.043-1.583 7.716-4.164 10.433l0.006-0.007 2.129 2.13c0.281 0.281 0.456 0.67 0.456 1.1 0 0.859-0.696 1.555-1.555 1.555-0 0-0.001 0-0.001 0h0c-0.429-0.002-0.817-0.174-1.101-0.451l-2.285-2.287c-2.425 1.713-5.441 2.738-8.698 2.738-3.25 0-6.261-1.021-8.731-2.76l0.048 0.032-2.269 2.266c-0.287 0.297-0.688 0.481-1.133 0.481-0.869 0-1.574-0.705-1.574-1.574 0-0.444 0.184-0.845 0.479-1.131l0-0 2.111-2.109c-2.561-2.715-4.135-6.386-4.135-10.424 0-8.399 6.809-15.208 15.208-15.208s15.208 6.809 15.208 15.208c0 0.002 0 0.004 0 0.006v-0zM16.787 4.721c-6.664 0-12.066 5.402-12.066 12.066s5.402 12.066 12.066 12.066c6.664 0 12.066-5.402 12.066-12.066v0c0-6.664-5.402-12.066-12.066-12.066v0zM23.082 18.361h-6.295c-0.869 0-1.574-0.705-1.574-1.574v0-8.393c0-0.869 0.705-1.574 1.574-1.574s1.574 0.705 1.574 1.574v0 6.82h4.721c0.869 0 1.574 0.705 1.574 1.574s-0.705 1.574-1.574 1.574v0zM1.35 10.188c-0.84-1.060-1.348-2.417-1.348-3.892 0-3.476 2.817-6.294 6.292-6.295h0c0.004 0 0.008 0 0.012 0 1.471 0 2.823 0.51 3.888 1.363l-0.012-0.010c-3.984 1.736-7.098 4.85-8.791 8.726l-0.042 0.108z"></path>
</symbol>
<symbol id="icon-trophy" viewBox="0 0 32 32">
<title>trophy</title>
<path d="M26 6v-4h-20v4h-6v4c0 3.314 2.686 6 6 6 0.627 0 1.232-0.096 1.801-0.275 1.443 2.063 3.644 3.556 6.199 4.075v6.2h-2c-2.209 0-4 1.791-4 4h16c0-2.209-1.791-4-4-4h-2v-6.2c2.555-0.519 4.756-2.012 6.199-4.075 0.568 0.179 1.173 0.275 1.801 0.275 3.314 0 6-2.686 6-6v-4h-6zM6 13.625c-1.999 0-3.625-1.626-3.625-3.625v-2h3.625v2c0 1.256 0.232 2.457 0.655 3.565-0.213 0.039-0.431 0.060-0.655 0.060zM29.625 10c0 1.999-1.626 3.625-3.625 3.625-0.224 0-0.442-0.021-0.655-0.060 0.423-1.107 0.655-2.309 0.655-3.565v-2h3.625v2z"></path>
</symbol>
<symbol id="icon-mug" viewBox="0 0 32 32">
<title>mug</title>
<path d="M30 10h-6v-3c0-2.761-5.373-5-12-5s-12 2.239-12 5v20c0 2.761 5.373 5 12 5s12-2.239 12-5v-3h6c1.105 0 2-0.895 2-2v-10c0-1.105-0.895-2-2-2zM5.502 8.075c-1.156-0.381-1.857-0.789-2.232-1.075 0.375-0.286 1.075-0.694 2.232-1.075 1.811-0.597 4.118-0.925 6.498-0.925s4.688 0.329 6.498 0.925c1.156 0.381 1.857 0.789 2.232 1.075-0.375 0.286-1.076 0.694-2.232 1.075-1.811 0.597-4.118 0.925-6.498 0.925s-4.688-0.329-6.498-0.925zM28 20h-4v-6h4v6z"></path>
</symbol>
</defs>
</svg>
